<svg width="41" height="46" viewBox="0 0 41 46" fill="none" xmlns="http://www.w3.org/2000/svg">
<rect x="11" y="12" width="29" height="34" fill="#E111DC"/>
<path d="M13 18C4.69914 22.725 -6.92206 33.54 13 39" stroke="#E111DC" stroke-width="4"/>
<ellipse cx="35" cy="10" rx="6" ry="5" fill="#E111DC"/>
<ellipse cx="15" cy="10" rx="6" ry="5" fill="#E111DC"/>
<ellipse cx="25.5" cy="8" rx="9.5" ry="8" fill="#E111DC"/>
<path d="M14.9393 25.9393C14.3536 26.5251 14.3536 27.4749 14.9393 28.0607L24.4853 37.6066C25.0711 38.1924 26.0208 38.1924 26.6066 37.6066C27.1924 37.0208 27.1924 36.0711 26.6066 35.4853L18.1213 27L26.6066 18.5147C27.1924 17.9289 27.1924 16.9792 26.6066 16.3934C26.0208 15.8076 25.0711 15.8076 24.4853 16.3934L14.9393 25.9393ZM35 25.5L16 25.5L16 28.5L35 28.5L35 25.5Z" fill="black"/>
</svg>
